Coordinates
version=1
nRows=12
nColumns=28
inDegrees=yes

Units are S.I. units (second, meters, Newtons, ...)
Angles are in degrees.

endheader
time	pelvis_tilt	pelvis_list	pelvis_rotation	pelvis_tx	pelvis_ty	pelvis_tz	hip_flexion_r	hip_adduction_r	hip_rotation_r	knee_angle_r	ankle_angle_r	subtalar_angle_r	mtp_angle_r	hip_flexion_l	hip_adduction_l	hip_rotation_l	knee_angle_l	socket_flexion	socket_adduction	socket_rotation	socket_tx	socket_ty	socket_tz	foot_flex	lumbar_extension	lumbar_bending	lumbar_rotation
      0.00000000	     -1.24001438	    -10.18786105	    -12.15553143	     -0.88213731	      0.98274431	      0.32416632	    -22.38839792	     11.04978103	     13.48280905	     -7.88145335	      3.32883576	    -17.63040052	     20.62892968	     28.45000971	    -14.39269993	      9.27814209	     -9.72997861	     -2.40026489	      0.00000000	      0.00000000	      0.00000000	     -0.00240230	      0.00000000	      2.29705174	    -11.41248706	      7.06730972	     18.47414468
      0.00416667	     -1.30468114	    -10.21790511	    -12.02858915	     -0.87689920	      0.98198756	      0.32367642	    -22.51997639	     11.08591541	     13.58696661	     -8.04938889	      3.29234780	    -17.60592236	     20.63768115	     28.35288800	    -14.29254203	      9.27489825	     -9.74088463	     -2.37172508	      0.00000000	      0.00000000	      0.00000000	     -0.00262506	      0.00000000	      2.21157709	    -11.26510510	      7.12038231	     18.49041261
      0.00833333	     -1.40196946	    -10.32284978	    -12.00851687	     -0.87156615	      0.98121791	      0.32326920	    -22.56500149	     11.17013294	     13.66711310	     -8.36646642	      3.12156871	    -17.59057899	     20.64431874	     28.18430522	    -14.32977027	      9.33488472	     -9.59449056	     -2.33072810	      0.00000000	      0.00000000	      0.00000000	     -0.00318244	      0.00000000	      1.74419284	    -11.15395797	      7.24278053	     18.51922638
      0.01250000	     -1.58184880	    -10.47765563	    -12.23081490	     -0.86592153	      0.98047858	      0.32321188	    -22.48557308	     11.25443600	     13.93296247	     -8.86037393	      2.84071317	    -17.78280340	     20.88723068	     27.76391489	    -14.58140195	      9.13506927	     -8.75149995	     -1.80152410	      0.00000000	      0.00000000	      0.00000000	     -0.00399831	      0.00000000	      1.54914896	    -10.94765762	      7.41381762	     18.82338657
      0.01666667	     -1.63585758	    -10.54943106	    -12.22710854	     -0.86018990	      0.97975660	      0.32274767	    -22.52694471	     11.28007451	     13.92382105	     -9.28511336	      2.67529272	    -17.82663819	     20.88158258	     27.55478854	    -14.56976403	      9.09847452	     -8.72887000	     -1.81394421	      0.00000000	      0.00000000	      0.00000000	     -0.00455570	      0.00000000	      1.25007842	    -10.87109691	      7.51326036	     18.80957157
      0.02083333	     -1.70326583	    -10.64313639	    -12.24524473	     -0.85438350	      0.97904623	      0.32231947	    -22.51969521	     11.33497611	     13.90944602	     -9.79859353	      2.46664814	    -17.87810436	     20.88383065	     27.32634429	    -14.59568554	      9.05083189	     -8.65271449	     -1.78018622	      0.00000000	      0.00000000	      0.00000000	     -0.00516200	      0.00000000	      0.98152784	    -10.78850216	      7.63298764	     18.80641550
      0.02500000	     -1.77535532	    -10.68631950	    -12.16758059	     -0.84821659	      0.97827180	      0.32180860	    -22.61442628	     11.35774281	     13.97675897	    -10.09782047	      2.38670332	    -17.88042915	     20.88558642	     27.13948038	    -14.52200591	      9.05847961	     -8.66351915	     -1.79215032	      0.00000000	      0.00000000	      0.00000000	     -0.00573855	      0.00000000	      0.88236149	    -10.61508933	      7.69101853	     18.80582731
      0.02916667	     -1.86148517	    -10.78759028	    -12.25020916	     -0.84241875	      0.97760882	      0.32145679	    -22.47683784	     11.41888164	     13.94050835	    -10.82842585	      2.05890292	    -17.94654358	     20.86868796	     26.87983338	    -14.59503640	      9.06482559	     -8.52416747	     -1.73590412	      0.00000000	      0.00000000	      0.00000000	     -0.00645589	      0.00000000	      0.39291779	    -10.55948743	      7.80187831	     18.78323931
      0.03333333	     -1.93449228	    -10.82590408	    -12.15378456	     -0.83600365	      0.97687217	      0.32087613	    -22.57492415	     11.43649793	     14.01004141	    -11.11723483	      1.98493344	    -17.94698746	     20.87044732	     26.68290751	    -14.50293254	      9.06317766	     -8.54990660	     -1.73257820	      0.00000000	      0.00000000	      0.00000000	     -0.00713549	      0.00000000	      0.33869239	    -10.36026289	      7.87670239	     18.78591732
      0.03750000	     -2.28509133	    -10.89374875	    -12.49020043	     -0.82980935	      0.97604775	      0.32092115	    -22.06095573	     11.46137113	     14.00816831	    -12.09314729	      1.42246040	    -18.18383832	     21.21759392	     26.30260303	    -14.74106408	      8.89781227	     -7.54432887	     -1.11334532	      0.00000000	      0.00000000	      0.00000000	     -0.00819790	      0.00000000	     -0.04529779	     -9.97370347	      8.00318488	     18.99805708
      0.04166667	     -2.32524776	    -10.92681883	    -12.46228136	     -0.82358420	      0.97550160	      0.32043094	    -22.03567931	     11.46919371	     14.03608577	    -12.65796810	      1.14831691	    -18.21088254	     21.22777702	     26.03265336	    -14.67871216	      8.92846517	     -7.53462231	     -1.11416030	      0.00000000	      0.00000000	      0.00000000	     -0.00895549	      0.00000000	     -0.33551638	     -9.87807702	      8.03446916	     18.96289575
      0.04583333	     -2.38609572	    -10.94864513	    -12.36142615	     -0.81701129	      0.97488649	      0.31986372	    -22.11374535	     11.47543833	     14.11714075	    -12.98340191	      1.04513415	    -18.20663653	     21.22836989	     25.80322480	    -14.57011291	      8.96186003	     -7.58066325	     -1.12478546	      0.00000000	      0.00000000	      0.00000000	     -0.00980097	      0.00000000	     -0.41204622	     -9.67845135	      8.08503170	     18.95389410
